<svg width="161" height="20" viewBox="0 0 161 20" fill="none" xmlns="http://www.w3.org/2000/svg">
<path d="M5.464 1.336C7.304 1.336 8.768 1.712 9.856 2.464C10.944 3.2 11.488 4.304 11.488 5.776C11.488 6.864 11.216 7.776 10.672 8.512C10.144 9.232 9.416 9.776 8.488 10.144C7.576 10.496 6.528 10.672 5.344 10.672L4.792 8.8C6.248 8.8 7.536 9 8.656 9.4C9.792 9.8 10.688 10.376 11.344 11.128C12 11.864 12.328 12.752 12.328 13.792C12.328 14.752 12.152 15.568 11.8 16.24C11.464 16.896 11 17.432 10.408 17.848C9.832 18.248 9.176 18.544 8.44 18.736C7.704 18.912 6.944 19 6.16 19H0.28V1.336H5.464ZM5.872 8.56C6.56 8.56 7.064 8.352 7.384 7.936C7.72 7.52 7.888 7.048 7.888 6.52C7.888 5.912 7.68 5.456 7.264 5.152C6.864 4.848 6.32 4.696 5.632 4.696H3.76V8.56H5.872ZM5.992 15.76C6.504 15.76 6.968 15.696 7.384 15.568C7.8 15.424 8.128 15.208 8.368 14.92C8.608 14.616 8.728 14.24 8.728 13.792C8.728 13.28 8.584 12.896 8.296 12.64C8.008 12.368 7.632 12.184 7.168 12.088C6.72 11.976 6.248 11.92 5.752 11.92H3.76V15.76H5.992ZM13.2177 19L21.1857 0.639999H21.3777L29.3457 19H25.3137L20.2257 6.088L22.7457 4.36L16.6497 19H13.2177ZM18.6657 12.616H23.9697L25.1937 15.544H17.5857L18.6657 12.616ZM41.3526 5.608C40.6806 5.24 39.9926 4.936 39.2886 4.696C38.6006 4.456 37.9526 4.336 37.3446 4.336C36.5926 4.336 36.0006 4.488 35.5686 4.792C35.1366 5.096 34.9206 5.552 34.9206 6.16C34.9206 6.576 35.0806 6.952 35.4006 7.288C35.7366 7.608 36.1606 7.896 36.6726 8.152C37.2006 8.408 37.7446 8.64 38.3046 8.848C38.8166 9.04 39.3206 9.272 39.8166 9.544C40.3286 9.8 40.7846 10.128 41.1846 10.528C41.5846 10.912 41.9046 11.4 42.1446 11.992C42.3846 12.568 42.5046 13.28 42.5046 14.128C42.5046 15.024 42.2726 15.856 41.8086 16.624C41.3446 17.392 40.6646 18.016 39.7686 18.496C38.8726 18.96 37.7686 19.192 36.4566 19.192C35.7846 19.192 35.0966 19.128 34.3926 19C33.7046 18.856 33.0246 18.648 32.3526 18.376C31.6806 18.088 31.0326 17.728 30.4086 17.296L31.9446 14.584C32.3606 14.888 32.8086 15.16 33.2886 15.4C33.7846 15.624 34.2806 15.8 34.7766 15.928C35.2726 16.056 35.7286 16.12 36.1446 16.12C36.5606 16.12 36.9766 16.064 37.3926 15.952C37.8246 15.824 38.1766 15.616 38.4486 15.328C38.7366 15.04 38.8806 14.64 38.8806 14.128C38.8806 13.776 38.7606 13.456 38.5206 13.168C38.2966 12.88 37.9846 12.616 37.5846 12.376C37.2006 12.136 36.7766 11.928 36.3126 11.752C35.7686 11.544 35.2086 11.304 34.6326 11.032C34.0566 10.76 33.5126 10.432 33.0006 10.048C32.5046 9.648 32.0966 9.16 31.7766 8.584C31.4726 7.992 31.3206 7.272 31.3206 6.424C31.3206 5.4 31.5446 4.512 31.9926 3.76C32.4566 3.008 33.1046 2.416 33.9366 1.984C34.7686 1.536 35.7286 1.288 36.8166 1.24C38.2406 1.24 39.3926 1.408 40.2726 1.744C41.1686 2.08 41.9686 2.48 42.6726 2.944L41.3526 5.608ZM45.9128 1.336H57.9608V4.696H49.3928V8.464H56.9768V11.824H49.3928V15.64H58.2968V19H45.9128V1.336ZM69.7019 19V1.336H74.9819C76.7579 1.336 78.2699 1.6 79.5179 2.128C80.7659 2.656 81.7659 3.36 82.5179 4.24C83.2859 5.12 83.8459 6.104 84.1979 7.192C84.5499 8.28 84.7259 9.376 84.7259 10.48C84.7259 11.792 84.4859 12.976 84.0059 14.032C83.5419 15.072 82.9019 15.968 82.0859 16.72C81.2699 17.456 80.3259 18.024 79.2539 18.424C78.1819 18.808 77.0459 19 75.8459 19H69.7019ZM73.1819 15.64H75.2459C76.1259 15.64 76.9259 15.528 77.6459 15.304C78.3659 15.064 78.9819 14.72 79.4939 14.272C80.0219 13.824 80.4219 13.264 80.6939 12.592C80.9819 11.904 81.1259 11.12 81.1259 10.24C81.1259 9.088 80.9339 8.152 80.5499 7.432C80.1819 6.696 79.7179 6.128 79.1579 5.728C78.6139 5.328 78.0539 5.056 77.4779 4.912C76.9019 4.752 76.4139 4.672 76.0139 4.672H73.1819V15.64ZM88.2175 1.336H100.266V4.696H91.6975V8.464H99.2815V11.824H91.6975V15.64H100.602V19H88.2175V1.336ZM113.634 5.608C112.962 5.24 112.274 4.936 111.57 4.696C110.882 4.456 110.234 4.336 109.626 4.336C108.874 4.336 108.282 4.488 107.85 4.792C107.418 5.096 107.202 5.552 107.202 6.16C107.202 6.576 107.362 6.952 107.682 7.288C108.018 7.608 108.442 7.896 108.954 8.152C109.482 8.408 110.026 8.64 110.586 8.848C111.098 9.04 111.602 9.272 112.098 9.544C112.61 9.8 113.066 10.128 113.466 10.528C113.866 10.912 114.186 11.4 114.426 11.992C114.666 12.568 114.786 13.28 114.786 14.128C114.786 15.024 114.554 15.856 114.09 16.624C113.626 17.392 112.946 18.016 112.05 18.496C111.154 18.96 110.05 19.192 108.738 19.192C108.066 19.192 107.378 19.128 106.674 19C105.986 18.856 105.306 18.648 104.634 18.376C103.962 18.088 103.314 17.728 102.69 17.296L104.226 14.584C104.642 14.888 105.09 15.16 105.57 15.4C106.066 15.624 106.562 15.8 107.058 15.928C107.554 16.056 108.01 16.12 108.426 16.12C108.842 16.12 109.258 16.064 109.674 15.952C110.106 15.824 110.458 15.616 110.73 15.328C111.018 15.04 111.162 14.64 111.162 14.128C111.162 13.776 111.042 13.456 110.802 13.168C110.578 12.88 110.266 12.616 109.866 12.376C109.482 12.136 109.058 11.928 108.594 11.752C108.05 11.544 107.49 11.304 106.914 11.032C106.338 10.76 105.794 10.432 105.282 10.048C104.786 9.648 104.378 9.16 104.058 8.584C103.754 7.992 103.602 7.272 103.602 6.424C103.602 5.4 103.826 4.512 104.274 3.76C104.738 3.008 105.386 2.416 106.218 1.984C107.05 1.536 108.01 1.288 109.098 1.24C110.522 1.24 111.674 1.408 112.554 1.744C113.45 2.08 114.25 2.48 114.954 2.944L113.634 5.608ZM118.194 1.336H121.674V19H118.194V1.336ZM140.561 17.224C140.353 17.448 140.025 17.68 139.577 17.92C139.129 18.144 138.609 18.352 138.017 18.544C137.441 18.736 136.849 18.888 136.241 19C135.633 19.128 135.057 19.192 134.513 19.192C133.073 19.192 131.777 18.984 130.625 18.568C129.473 18.136 128.489 17.544 127.673 16.792C126.857 16.024 126.233 15.12 125.801 14.08C125.369 13.04 125.153 11.904 125.153 10.672C125.153 9.056 125.393 7.656 125.873 6.472C126.369 5.272 127.033 4.28 127.865 3.496C128.713 2.696 129.681 2.104 130.769 1.72C131.873 1.336 133.025 1.144 134.225 1.144C135.361 1.144 136.401 1.272 137.345 1.528C138.289 1.768 139.089 2.072 139.745 2.44L138.617 5.68C138.329 5.52 137.945 5.36 137.465 5.2C136.985 5.04 136.497 4.912 136.001 4.816C135.505 4.704 135.065 4.648 134.681 4.648C133.721 4.648 132.873 4.768 132.137 5.008C131.401 5.248 130.777 5.608 130.265 6.088C129.769 6.568 129.393 7.168 129.137 7.888C128.881 8.592 128.753 9.416 128.753 10.36C128.753 11.192 128.897 11.944 129.185 12.616C129.473 13.272 129.873 13.832 130.385 14.296C130.913 14.76 131.529 15.112 132.233 15.352C132.953 15.592 133.745 15.712 134.609 15.712C135.105 15.712 135.561 15.68 135.977 15.616C136.393 15.536 136.745 15.416 137.033 15.256V13.12H133.985V9.76H140.561V17.224ZM160.33 19.72L146.938 7.624L147.97 8.2L148.042 19H144.514V0.639999H144.658L157.762 12.688L156.994 12.352L156.922 1.336H160.426V19.72H160.33Z" fill="#E5E5E5"/>
</svg>
